<svg id="Layer_1" data-name="Layer 1" xmlns="http://www.w3.org/2000/svg" viewBox="0 0 1077 1077"><defs><style>.cls-1{fill:#fff;}.cls-2{font-size:46px;letter-spacing:0.05em;}.cls-12,.cls-13,.cls-2,.cls-5{fill:#2d3161;}.cls-12,.cls-2{font-family:QuicksandBook-Regular, Quicksand;}.cls-3{letter-spacing:0.02em;}.cls-4{letter-spacing:0.07em;}.cls-12,.cls-5{font-size:77.16px;letter-spacing:0.18em;}.cls-5{font-family:QuicksandLight-Regular, Quicksand;}.cls-6{letter-spacing:0.17em;}.cls-7{letter-spacing:0.13em;}.cls-8{letter-spacing:0.12em;}.cls-9{letter-spacing:0.18em;}.cls-10{letter-spacing:0.17em;}.cls-11{letter-spacing:0.18em;}.cls-14{fill:#00c9ed;}</style></defs><title>3a</title><rect class="cls-1" width="1077" height="1077"/><text class="cls-2" transform="translate(344.93 750.26)">Digi<tspan class="cls-3" x="99.04" y="0">t</tspan><tspan class="cls-4" x="118.49" y="0">a</tspan><tspan x="150.05" y="0">l solutions</tspan></text><text class="cls-2" transform="translate(345.93 750.26)">Digi<tspan class="cls-3" x="99.04" y="0">t</tspan><tspan class="cls-4" x="118.49" y="0">a</tspan><tspan x="150.05" y="0">l solutions</tspan></text><text class="cls-5" transform="translate(248.35 685.7)">B<tspan class="cls-6" x="59.8" y="0">U</tspan><tspan class="cls-7" x="135.42" y="0">N</tspan><tspan class="cls-8" x="205.02" y="0">D</tspan><tspan class="cls-9" x="269.46" y="0">A</tspan><tspan class="cls-10" x="333.27" y="0">K</tspan><tspan class="cls-11" x="401.64" y="0">TEN</tspan></text><text class="cls-5" transform="translate(247.35 685.7)">B<tspan class="cls-6" x="59.8" y="0">U</tspan><tspan class="cls-7" x="135.42" y="0">N</tspan><tspan class="cls-8" x="205.02" y="0">D</tspan><tspan class="cls-9" x="269.46" y="0">A</tspan><tspan class="cls-10" x="333.27" y="0">K</tspan><tspan class="cls-11" x="401.64" y="0">TEN</tspan></text><text class="cls-5" transform="translate(249.35 685.7)">B<tspan class="cls-6" x="59.8" y="0">U</tspan><tspan class="cls-7" x="135.42" y="0">N</tspan><tspan class="cls-8" x="205.02" y="0">D</tspan><tspan class="cls-9" x="269.46" y="0">A</tspan><tspan class="cls-10" x="333.27" y="0">K</tspan><tspan class="cls-11" x="401.64" y="0">TEN</tspan></text><text class="cls-5" transform="translate(250.35 685.7)">B<tspan class="cls-6" x="59.8" y="0">U</tspan><tspan class="cls-7" x="135.42" y="0">N</tspan><tspan class="cls-8" x="205.02" y="0">D</tspan><tspan class="cls-9" x="269.46" y="0">A</tspan><tspan class="cls-10" x="333.27" y="0">K</tspan><tspan class="cls-11" x="401.64" y="0">TEN</tspan></text><text class="cls-12" transform="translate(251.35 685.7)">B<tspan class="cls-6" x="59.8" y="0">U</tspan><tspan class="cls-7" x="135.42" y="0">N</tspan><tspan class="cls-8" x="205.02" y="0">D</tspan><tspan class="cls-9" x="269.46" y="0">A</tspan><tspan class="cls-10" x="333.27" y="0">K</tspan><tspan class="cls-11" x="401.64" y="0">TEN</tspan></text><text class="cls-12" transform="translate(251.35 685.7)">B<tspan class="cls-6" x="59.8" y="0">U</tspan><tspan class="cls-7" x="135.42" y="0">N</tspan><tspan class="cls-8" x="205.02" y="0">D</tspan><tspan class="cls-9" x="269.46" y="0">A</tspan><tspan class="cls-10" x="333.27" y="0">K</tspan><tspan class="cls-11" x="401.64" y="0">TEN</tspan></text><path class="cls-13" d="M662.55,321.23c.33.73,1.19,1.53.42,2.32-.61.63-1.45.05-2.14-.19a178.26,178.26,0,0,0-31.7-7.26,3.34,3.34,0,0,1-2.86-2,54.24,54.24,0,0,0-9-13.84c-.31-.35-.7-.74-.47-1.25.3-.66.94-.51,1.5-.46s1.32.16,2,.24a150,150,0,0,1,28.36,5.05,9.2,9.2,0,0,1,4.85,3.25A64.11,64.11,0,0,1,662.55,321.23Z" transform="translate(-2 -1)"/><path class="cls-13" d="M630.72,544.07c1.5,1.41,1.36,2.44-.08,3.74-8.55,7.72-17.21,15.3-26.34,22.35-1.84,1.42-3.22,1.55-4.93-.12-8-7.78-15.73-15.77-23.13-24.1-1-1.17-.81-1.91.35-2.77A271.63,271.63,0,0,0,602.68,521a9.73,9.73,0,0,1,1.67-1.12,3,3,0,0,1,2.17,1.17C614.59,528.72,622.62,536.43,630.72,544.07Z" transform="translate(-2 -1)"/><path class="cls-13" d="M626.26,465c1.93,1.42,2,2.69.57,4.48-6.67,8.68-13.36,17.32-20.79,25.38-1.47,1.6-2.4,1.19-3.73-.05-7.23-6.75-14.52-13.44-21.79-20.14-1.54-1.41-3.11-2.8-4.67-4.19-1.09-1-1.43-1.89-.27-3.12a258.54,258.54,0,0,0,19-23.11c.44-.6.85-1.3,1.93-1.24.53.33,1.21.69,1.81,1.14C607.67,451.05,616.93,458.05,626.26,465Z" transform="translate(-2 -1)"/><path class="cls-13" d="M613.11,356.27c1.44.3,2.53.87,2.16,2.68A178.32,178.32,0,0,1,610.59,378c-1.11,3.5-1.42,3.63-4.87,2.42-7.54-2.64-15.17-5-22.85-7.15-3.39-.95-6.76-1.93-10.18-2.72-2.06-.48-2.37-1.62-1.79-3.35A86.34,86.34,0,0,0,574.53,352a1.89,1.89,0,0,1,2.35-1.86c7.65.85,15.29,1.79,22.84,3.3C604.19,354.37,608.65,355.33,613.11,356.27Z" transform="translate(-2 -1)"/><path class="cls-13" d="M610.53,311.82c.87,1.77.58,2.67-1.61,2.58s-4.38,0-6.57,0a240.2,240.2,0,0,0-27.59,1.91c-1.78.25-2.9-.07-3.68-1.75a36.48,36.48,0,0,0-5.82-9.11c-1.7-1.89,0-2.17,1.28-2.51a153.17,153.17,0,0,1,20-3.54c4-.46,8-.74,11.92-1.12a5,5,0,0,1,4.53,1.86A56.13,56.13,0,0,1,610.53,311.82Z" transform="translate(-2 -1)"/><path class="cls-14" d="M601.78,393.1c2.1.88,2.43,1.84,1.47,3.88-3.3,7-6.89,13.81-10.67,20.54-1.09,1.94-2.05,2.48-4.21,1.16-9.75-6-19.83-11.39-29.94-16.73-2-1.08-2.6-2.05-1.28-4.17a167.15,167.15,0,0,0,8.21-15.7c.49-1.05.91-2.2,2.49-1.86,3.33,1.18,6.65,2.34,10,3.54C585.89,386.66,593.88,389.75,601.78,393.1Z" transform="translate(-2 -1)"/><path class="cls-13" d="M592.47,291.21a6.88,6.88,0,0,1,1,1.11c-1.9.29-3.44.61-5,.76a148.52,148.52,0,0,0-26.6,5.08c-2.33.67-4.34.73-6.48-.71-3.06-2.07-6.7-3-10.1-4.7a98.92,98.92,0,0,1,20.2-6.47,28.39,28.39,0,0,0,3.08-.59C577.63,282.82,585.1,286.78,592.47,291.21Z" transform="translate(-2 -1)"/><path class="cls-13" d="M591.74,506c1.49,1.5,1.11,2.51-.23,3.78-8,7.61-16.51,14.65-25.22,21.44-1.68,1.31-2.7.5-3.82-.8-6.84-7.94-13.29-16.19-19.69-24.48-4.38-5.66-4.18-5.59,1.62-9.81a185.83,185.83,0,0,0,16.47-14.12c1.11-1,2.34-1.91,3.35-2.72a2.76,2.76,0,0,1,2.17,1.15C574.84,489,583.26,497.56,591.74,506Z" transform="translate(-2 -1)"/><path class="cls-14" d="M580,431.07c.83.56,2,.91,2,2.35-.37.56-.74,1.22-1.19,1.83Q572.88,446,564,455.87c-1.31,1.47-2.33,1.29-3.58.14-2.66-2.45-5.35-4.88-8-7.34-5.8-5.37-11.54-10.8-17.39-16.12-1.8-1.64-2-2.85-.17-4.68a127.58,127.58,0,0,0,12-14.56c1.53-2.1,2.77-2.61,5.1-1C561.21,418.64,570.61,424.81,580,431.07Z" transform="translate(-2 -1)"/><path class="cls-13" d="M558.67,327.76a24.84,24.84,0,0,1,.93,7.05c.08,6.23.09,6.53-5.82,6.79-8.49.37-16.89,1.39-25.28,2.52-2.36.31-4.7.76-7,1.15-1.6.27-2.41-.19-2.6-2-.8-7.51-.86-7.52,6.36-9.85A247,247,0,0,1,556,326C557.57,325.73,558.3,326.24,558.67,327.76Z" transform="translate(-2 -1)"/><path class="cls-13" d="M556.09,349c2.08.22,2.67,1.26,2.24,3-1,4.07-2.05,8.11-3.08,12.16-.43,1.68-1.39,2.25-3.17,1.91-9.8-1.89-19.72-3-29.64-4.08l-.56-.07c-5.78-.6-5.78-.6-4.42-6.42a6.16,6.16,0,0,0,.22-1.12c.12-3.3,1.92-4.53,5.11-4.66,8.54-.32,17.07-.83,25.61-1.26C551,348.62,553.53,348.71,556.09,349Z" transform="translate(-2 -1)"/><path class="cls-13" d="M555.09,316.89c.26.5.45,1,.61,1.42,0,1.34-.92,1.52-1.74,1.71a245.56,245.56,0,0,0-34.83,11.06,2.25,2.25,0,0,1-3.28-1.2,17.22,17.22,0,0,0-1-1.71c-2.46-3.77-2.49-3.83,1.4-5.92a215,215,0,0,1,30.49-13.63,2.64,2.64,0,0,1,3.46.92A54.75,54.75,0,0,1,555.09,316.89Z" transform="translate(-2 -1)"/><path class="cls-14" d="M551.15,464.55c1.57,1.65,1.67,2.81,0,4.49-6.21,6.06-13,11.44-19.74,16.9a12.82,12.82,0,0,1-1.59,1c-1.63-.07-2.23-1.29-2.9-2.26q-6.68-9.63-13.21-19.34c-2.08-3.07-4.06-6.22-6.13-9.3-.8-1.19-1.08-2.24.25-3.21,5.78-4.22,11-9.12,16.38-13.8,1.35-1.18,2.29-.85,3.37.31Q539.31,452,551.15,464.55Z" transform="translate(-2 -1)"/><path class="cls-14" d="M550.72,376.32a11.39,11.39,0,0,1-.4,1.39A113.71,113.71,0,0,1,542.53,392a2.14,2.14,0,0,1-3.17.77c-9.65-5-19.69-9.1-29.62-13.47-1.56-.69-1.92-1.62-1-3.15,1.38-2.38,2.74-4.79,3.93-7.28a3.16,3.16,0,0,1,3.94-1.9q15.79,3.21,31.37,7.35C549.09,374.58,550.67,374.75,550.72,376.32Z" transform="translate(-2 -1)"/><path class="cls-13" d="M548.06,541.05c.28.37.51.78.7,1.06a2.23,2.23,0,0,1-1.37,1.88,257.93,257.93,0,0,1-25.92,13.9c-1.43.68-2.3.2-3.09-1q-9.72-15-18.19-30.72c-.9-1.66-.46-2.59,1.2-3.33A195.36,195.36,0,0,0,523.54,511c1.43-.87,2.31-.75,3.28.68Q537,526.66,548.06,541.05Z" transform="translate(-2 -1)"/><path class="cls-13" d="M542.59,303c1.57,1,0,1.7-.84,2.11-4.38,2.07-8.81,4-13.18,6.14a132.35,132.35,0,0,0-16.08,9.18,5.26,5.26,0,0,1-6.21.34c-4.77-2.59-5-2.47-.62-5.91A160.51,160.51,0,0,1,530,299a14.91,14.91,0,0,1,1.82-.71A32.38,32.38,0,0,1,542.59,303Z" transform="translate(-2 -1)"/><path class="cls-14" d="M533.71,400.92c.73.42,1.58.78,1.47,2.05a11.8,11.8,0,0,1-.78,1.32c-3.6,4.68-7.24,9.31-11.21,13.68-1.33,1.47-2.33,1.47-3.76.09q-11-10.56-22.22-20.95c-1.81-1.67-1.91-2.9-.15-4.69a64,64,0,0,0,5.46-6.58c1.1-1.48,2.16-1.88,3.83-.9C515.45,390.3,524.59,395.6,533.71,400.92Z" transform="translate(-2 -1)"/><path class="cls-13" d="M504.53,301.46c5.27-5.16,11.88-4.3,18.32-4.33.46,0,1,.07,1,.7s-.69.87-1.17,1.15a135.52,135.52,0,0,0-16.42,11.41c-1.48,1.2-3.21,2.21-4.36,3.67-2.77,3.53-6.43,4.43-10.6,4.28-.47,0-.95,0-1.43,0s-1.23.18-1.56-.38.27-1,.61-1.45a83.76,83.76,0,0,1,9.51-9.88C500.41,304.84,502.63,303.32,504.53,301.46Z" transform="translate(-2 -1)"/><path class="cls-14" d="M514,424.71a5.85,5.85,0,0,1,.73,1.31,2.79,2.79,0,0,1-1.12,1.82c-4.31,3.75-8.52,7.6-13.07,11.08-1.71,1.3-2.66,1.31-3.79-.64-5.1-8.83-10-17.79-14.81-26.76-1.29-2.38-1.49-4,1.08-5.69a53.55,53.55,0,0,0,6.57-5.49c1.19-1.08,2-1.08,3.09.13Q503.34,412.61,514,424.71Z" transform="translate(-2 -1)"/><path class="cls-13" d="M478.53,312.16c5.28-7.77,13.72-9.52,21.94-12.13,0,1.32-.76,1.66-1.34,2.1a66.28,66.28,0,0,0-14.21,14.75c-2.93,4.16-7.68,4.27-11.66,6-1.48.67-.8-1-.51-1.6C474.27,318,476.5,315.15,478.53,312.16Z" transform="translate(-2 -1)"/><path class="cls-13" d="M488.78,444.35c.71,1.45.62,2.43-.87,3.32-4.35,2.58-8.8,4.95-13.32,7.2-1.48.73-2.56.65-3-1.17-3-11.34-5.47-22.79-7.41-34.35a2.66,2.66,0,0,1,0-.28c-.15-1.29.67-1.89,1.65-2.4,2.12-1.09,4.25-2.15,6.33-3.31,2.82-1.58,3.21-1.52,4.32,1.46,2.73,7.33,5.7,14.55,8.83,21.71C486.4,439.15,487.53,441.78,488.78,444.35Z" transform="translate(-2 -1)"/><path class="cls-13" d="M479.16,511.35c.64,1.66.63,2.69-1.53,3.35A167.8,167.8,0,0,1,458.88,519c-2.22.23-2.91-.66-3.25-2a338.9,338.9,0,0,1-6.83-35.84,1.74,1.74,0,0,1,1.55-2.24c5-1.11,10.07-1.89,15-3.49,1.61-.53,2.41.08,2.88,1.72,2.47,8.68,4.8,17.41,7.88,25.91C477.07,505.84,478.1,508.59,479.16,511.35Z" transform="translate(-2 -1)"/><path class="cls-13" d="M475.25,311.29c-1.55,2.28-3,4.32-4.34,6.39a7.88,7.88,0,0,0-1.44,2.44c-1.39,6.69-7.14,9.15-12,12.52-1.64,1.15-2.25.57-2.16-1.19.2-4.2,1.06-8.17,4.79-10.77,4.59-3.19,9.27-6.27,13.93-9.37C474.26,311.19,474.59,311.29,475.25,311.29Z" transform="translate(-2 -1)"/><path class="cls-13" d="M463.64,456.85c.31,1.66-.21,2.52-1.84,2.88-3.81.86-7.59,1.81-11.41,2.66-2,.44-3-.23-3.12-2.45-.21-3.71-.57-7.41-.46-9.84.06-9.39.69-17.46,1.16-25.53.09-1.66.73-2.63,2.49-2.89a51.12,51.12,0,0,0,5-1.15c3.35-.86,3.54-.89,3.8,2.64A288.86,288.86,0,0,0,463.64,456.85Z" transform="translate(-2 -1)"/><path class="cls-13" d="M450,337.37c.19,1-.45,1.56-1.08,2.17a87.11,87.11,0,0,0-7.29,7.59c-1.14,1.41-6.51.2-7.08-1.5a1.51,1.51,0,0,1,.55-1.52,148,148,0,0,1,14.67-14.47A34.87,34.87,0,0,0,450,337.37Z" transform="translate(-2 -1)"/><path class="cls-13" d="M437.12,421.49c6.58,1.09,6.69,1.05,5.72,7.66a292.4,292.4,0,0,0-2.8,31c-.11,2.82-.44,3.05-5.16,2.92-1.37-.26-4-.76-6.61-1.21-1.83-.31-2.52-1.15-2.23-3.14A236.57,236.57,0,0,1,434,423.32C434.49,421.57,435.38,421.2,437.12,421.49Z" transform="translate(-2 -1)"/><path class="cls-13" d="M434,353.67c1.41.37,1.2,1.23.6,2.16q-2.7,4.19-5.41,8.36a3.88,3.88,0,0,1-2,1.59,37.79,37.79,0,0,0-11.13,5.83,66.91,66.91,0,0,1,10.64-16.7C428.5,352.92,431.39,353,434,353.67Z" transform="translate(-2 -1)"/><path class="cls-13" d="M429,417.83c2.22,1.16,2.12,2.68,1.3,4.72a184.59,184.59,0,0,0-7.43,23.34c-.84,3.31-1.57,6.65-2.23,10-.49,2.47-1.68,2.73-3.56,1.4a42,42,0,0,1-6.19-5,3.68,3.68,0,0,1-1.17-3.4c1.07-3.18,2.22-7,3.63-10.73A199.24,199.24,0,0,1,423,416.54c.92-1.79,1.75-2.36,3.36-.84A12.22,12.22,0,0,0,429,417.83Z" transform="translate(-2 -1)"/><path class="cls-13" d="M417.67,404.43c.43-.55.74-1.53,1.69-1.25.73.22.52,1.15.83,1.71,2.44,4.3,1.45,8-1.11,12.09-4.88,7.74-8.52,16.15-11.84,24.68-.33.85-.36,2.27-1.38,2.3-1.2,0-1.31-1.46-1.71-2.36a39.23,39.23,0,0,1-2.92-9.79,16.83,16.83,0,0,1,.7-1.93A139.18,139.18,0,0,1,417.67,404.43Z" transform="translate(-2 -1)"/><path class="cls-13" d="M417.3,389.37c.59-.55,1.16-1.56,2.11-1.1s.12,1.37.21,2.07c.71,5.93-2.24,10.16-6,14.39a87.91,87.91,0,0,0-11.28,16.83,3.06,3.06,0,0,1-2,2c.15-7.53-.31-14.7,4.77-20.88A141.38,141.38,0,0,1,417.3,389.37Z" transform="translate(-2 -1)"/><path class="cls-13" d="M415.43,473.12a3.54,3.54,0,0,1,1.85,3.73,232.63,232.63,0,0,0-.4,33.91c.12,1.94-.69,2.24-2.18,1.37a45.09,45.09,0,0,1-11.58-9.63c-1.89-2.21-.49-5-1-7.16a184.82,184.82,0,0,1,3-27.5c.14-.73.13-1.64,1-1.92s1.14.55,1.56,1A38.79,38.79,0,0,0,415.43,473.12Z" transform="translate(-2 -1)"/><path class="cls-13" d="M422.43,371.87c.63-.4,1.44-.87,2.13-.39s.28,1.46,0,2.09c-1.94,4.67-3.07,9.59-7.94,12.73-4,2.59-7.19,6.47-10.1,10.39-.53.73-1,1.68-2.42,1.73.71-4.24,2.7-7.92,3.94-11.84C410.39,379.19,416.42,375.57,422.43,371.87Z" transform="translate(-2 -1)"/><polygon class="cls-13" points="473.84 361.76 473.34 372.97 463.39 378.15 453.93 372.12 454.42 360.9 464.37 355.73 473.84 361.76"/></svg>