<svg id="Layer_1" data-name="Layer 1" xmlns="http://www.w3.org/2000/svg" viewBox="0 0 602.79 475.97"><defs><style>.cls-1{font-size:46px;fill:#00ccf0;letter-spacing:0.05em;}.cls-1,.cls-4{font-family:QuicksandBook-Regular, Quicksand;}.cls-2{letter-spacing:0.02em;}.cls-3{letter-spacing:0.07em;}.cls-4{font-size:77.16px;letter-spacing:0.18em;}.cls-12,.cls-4{fill:#00c9ed;}.cls-5{letter-spacing:0.17em;}.cls-6{letter-spacing:0.13em;}.cls-7{letter-spacing:0.12em;}.cls-8{letter-spacing:0.18em;}.cls-9{letter-spacing:0.17em;}.cls-10{letter-spacing:0.18em;}.cls-11{fill:#2d3161;}</style></defs><title>3b</title><text class="cls-1" transform="translate(95.58 466.54)">Digi<tspan class="cls-2" x="99.04" y="0">t</tspan><tspan class="cls-3" x="118.49" y="0">a</tspan><tspan x="150.05" y="0">l solutions</tspan></text><text class="cls-1" transform="translate(96.58 466.54)">Digi<tspan class="cls-2" x="99.04" y="0">t</tspan><tspan class="cls-3" x="118.49" y="0">a</tspan><tspan x="150.05" y="0">l solutions</tspan></text><text class="cls-4" transform="translate(0 401.98)">B<tspan class="cls-5" x="59.8" y="0">U</tspan><tspan class="cls-6" x="135.42" y="0">N</tspan><tspan class="cls-7" x="205.02" y="0">D</tspan><tspan class="cls-8" x="269.46" y="0">A</tspan><tspan class="cls-9" x="333.27" y="0">K</tspan><tspan class="cls-10" x="401.64" y="0">TEN</tspan></text><text class="cls-4" transform="translate(1 401.98)">B<tspan class="cls-5" x="59.8" y="0">U</tspan><tspan class="cls-6" x="135.42" y="0">N</tspan><tspan class="cls-7" x="205.02" y="0">D</tspan><tspan class="cls-8" x="269.46" y="0">A</tspan><tspan class="cls-9" x="333.27" y="0">K</tspan><tspan class="cls-10" x="401.64" y="0">TEN</tspan></text><text class="cls-4" transform="translate(2 401.98)">B<tspan class="cls-5" x="59.8" y="0">U</tspan><tspan class="cls-6" x="135.42" y="0">N</tspan><tspan class="cls-7" x="205.02" y="0">D</tspan><tspan class="cls-8" x="269.46" y="0">A</tspan><tspan class="cls-9" x="333.27" y="0">K</tspan><tspan class="cls-10" x="401.64" y="0">TEN</tspan></text><text class="cls-4" transform="translate(4 401.98)">B<tspan class="cls-5" x="59.8" y="0">U</tspan><tspan class="cls-6" x="135.42" y="0">N</tspan><tspan class="cls-7" x="205.02" y="0">D</tspan><tspan class="cls-8" x="269.46" y="0">A</tspan><tspan class="cls-9" x="333.27" y="0">K</tspan><tspan class="cls-10" x="401.64" y="0">TEN</tspan></text><path class="cls-11" d="M641,346c.33.73,1.19,1.53.42,2.33-.61.63-1.45,0-2.14-.19a177.59,177.59,0,0,0-31.7-7.26,3.35,3.35,0,0,1-2.86-2,54.42,54.42,0,0,0-9-13.84c-.31-.35-.7-.74-.47-1.24.3-.66.94-.52,1.5-.47s1.32.16,2,.25a149.24,149.24,0,0,1,28.36,5.05,9.13,9.13,0,0,1,4.85,3.24A64.11,64.11,0,0,1,641,346Z" transform="translate(-229.82 -309.47)"/><path class="cls-11" d="M609.19,568.82c1.49,1.4,1.35,2.43-.09,3.73-8.54,7.72-17.2,15.31-26.33,22.35-1.84,1.42-3.23,1.55-4.93-.11-8-7.79-15.73-15.77-23.13-24.11-1-1.17-.81-1.9.34-2.77a267.72,267.72,0,0,0,26.1-22.18,9.73,9.73,0,0,1,1.67-1.12,3,3,0,0,1,2.17,1.17C593.05,553.46,601.09,561.17,609.19,568.82Z" transform="translate(-229.82 -309.47)"/><path class="cls-11" d="M604.73,489.7c1.92,1.42,1.95,2.68.57,4.48-6.67,8.67-13.37,17.32-20.79,25.38-1.47,1.6-2.4,1.18-3.73-.06-7.23-6.74-14.52-13.43-21.79-20.13-1.54-1.42-3.11-2.8-4.68-4.19-1.09-1-1.42-1.89-.26-3.12a258.56,258.56,0,0,0,19-23.12c.45-.59.86-1.29,1.94-1.23.53.33,1.2.69,1.81,1.14C586.13,475.8,595.4,482.79,604.73,489.7Z" transform="translate(-229.82 -309.47)"/><path class="cls-11" d="M591.58,381c1.44.3,2.53.86,2.16,2.68a181.35,181.35,0,0,1-4.68,19.09c-1.12,3.49-1.42,3.63-4.87,2.42-7.54-2.65-15.17-5-22.86-7.16-3.38-.95-6.75-1.93-10.17-2.72-2.06-.48-2.37-1.62-1.79-3.34A88.48,88.48,0,0,0,553,376.77a1.9,1.9,0,0,1,2.34-1.86c7.65.86,15.29,1.79,22.85,3.31C582.66,379.11,587.12,380.07,591.58,381Z" transform="translate(-229.82 -309.47)"/><path class="cls-11" d="M589,336.57c.87,1.77.58,2.66-1.61,2.57s-4.38,0-6.57,0A237.83,237.83,0,0,0,553.23,341c-1.78.24-2.9-.07-3.68-1.76a36.18,36.18,0,0,0-5.83-9.1c-1.69-1.9,0-2.18,1.29-2.51a149.87,149.87,0,0,1,20-3.54c4-.47,7.95-.74,11.92-1.13a4.93,4.93,0,0,1,4.52,1.87A55.26,55.26,0,0,1,589,336.57Z" transform="translate(-229.82 -309.47)"/><path class="cls-12" d="M580.25,417.84c2.09.89,2.43,1.84,1.47,3.88-3.3,7-6.89,13.81-10.67,20.54-1.09,1.94-2,2.49-4.21,1.16-9.75-6-19.83-11.38-29.94-16.72-2-1.08-2.6-2.05-1.29-4.18a161.4,161.4,0,0,0,8.21-15.7c.5-1,.92-2.19,2.5-1.86,3.32,1.18,6.65,2.35,10,3.54C564.36,411.4,572.35,414.49,580.25,417.84Z" transform="translate(-229.82 -309.47)"/><path class="cls-11" d="M570.93,316a7.24,7.24,0,0,1,1,1.11c-1.9.3-3.44.61-5,.76a149.25,149.25,0,0,0-26.6,5.09c-2.33.66-4.34.72-6.48-.72-3.06-2.06-6.7-3-10.1-4.69A99,99,0,0,1,544,311c1-.21,2.09-.27,3.08-.58C556.1,307.57,563.57,311.53,570.93,316Z" transform="translate(-229.82 -309.47)"/><path class="cls-11" d="M570.21,530.79c1.49,1.49,1.11,2.5-.23,3.77-8,7.61-16.51,14.65-25.22,21.44-1.68,1.31-2.7.51-3.83-.8-6.83-7.94-13.29-16.19-19.69-24.47-4.37-5.67-4.18-5.6,1.63-9.82a184.06,184.06,0,0,0,16.47-14.11c1.1-1,2.34-1.91,3.34-2.73a2.79,2.79,0,0,1,2.18,1.15C553.31,513.75,561.72,522.3,570.21,530.79Z" transform="translate(-229.82 -309.47)"/><path class="cls-12" d="M558.42,455.82c.82.55,2,.9,2,2.35-.36.56-.74,1.21-1.18,1.82q-7.86,10.72-16.74,20.63c-1.31,1.47-2.34,1.28-3.58.14-2.67-2.45-5.35-4.88-8-7.34-5.8-5.38-11.54-10.81-17.39-16.13-1.8-1.63-2-2.85-.17-4.67a130.44,130.44,0,0,0,12-14.56c1.52-2.1,2.77-2.61,5.1-1C539.68,443.39,549.08,449.56,558.42,455.82Z" transform="translate(-229.82 -309.47)"/><path class="cls-11" d="M537.13,352.5a24.57,24.57,0,0,1,.94,7.05c.08,6.23.09,6.53-5.82,6.79-8.49.38-16.89,1.4-25.29,2.52-2.35.32-4.69.77-7,1.16-1.6.26-2.41-.19-2.61-2-.79-7.5-.85-7.51,6.37-9.85a248.36,248.36,0,0,1,30.81-7.38C536,350.47,536.77,351,537.13,352.5Z" transform="translate(-229.82 -309.47)"/><path class="cls-11" d="M534.56,373.72c2.08.22,2.67,1.27,2.24,3.06-1,4.06-2,8.1-3.09,12.15-.42,1.68-1.38,2.25-3.16,1.91-9.8-1.88-19.72-3-29.64-4.08l-.57-.06c-5.78-.61-5.77-.61-4.42-6.42a5.57,5.57,0,0,0,.23-1.12c.12-3.3,1.91-4.54,5.1-4.66,8.55-.33,17.08-.83,25.62-1.27C529.44,373.37,532,373.45,534.56,373.72Z" transform="translate(-229.82 -309.47)"/><path class="cls-11" d="M533.55,341.64c.27.5.46,1,.62,1.41,0,1.34-.92,1.53-1.74,1.72a242.62,242.62,0,0,0-34.83,11.06,2.26,2.26,0,0,1-3.28-1.21,19.88,19.88,0,0,0-1-1.71c-2.46-3.77-2.49-3.83,1.4-5.92a216.05,216.05,0,0,1,30.49-13.62,2.64,2.64,0,0,1,3.46.91A53.85,53.85,0,0,1,533.55,341.64Z" transform="translate(-229.82 -309.47)"/><path class="cls-12" d="M529.62,489.29c1.56,1.66,1.67,2.81,0,4.49-6.22,6.07-13,11.44-19.74,16.9a12.82,12.82,0,0,1-1.59,1c-1.63-.06-2.24-1.29-2.91-2.26q-6.66-9.61-13.2-19.33c-2.08-3.08-4.06-6.23-6.13-9.31-.8-1.19-1.08-2.24.25-3.2,5.78-4.23,11-9.13,16.38-13.81,1.35-1.17,2.28-.85,3.36.31Q517.78,476.71,529.62,489.29Z" transform="translate(-229.82 -309.47)"/><path class="cls-12" d="M529.19,401.06a11.39,11.39,0,0,1-.4,1.39,115.93,115.93,0,0,1-7.8,14.26,2.13,2.13,0,0,1-3.16.77c-9.65-5-19.7-9.1-29.62-13.48-1.56-.69-1.92-1.61-1-3.14,1.38-2.39,2.74-4.8,3.93-7.28a3.15,3.15,0,0,1,3.94-1.91c10.53,2.15,21,4.57,31.37,7.35C527.56,399.33,529.14,399.5,529.19,401.06Z" transform="translate(-229.82 -309.47)"/><path class="cls-11" d="M526.53,565.8c.28.37.51.78.7,1.06a2.22,2.22,0,0,1-1.37,1.87,255,255,0,0,1-25.92,13.9c-1.43.69-2.3.2-3.09-1q-9.72-15-18.19-30.71c-.91-1.66-.46-2.59,1.2-3.33A197.84,197.84,0,0,0,502,535.71c1.43-.88,2.31-.75,3.28.68Q515.48,551.41,526.53,565.8Z" transform="translate(-229.82 -309.47)"/><path class="cls-11" d="M521.06,327.71c1.57,1,0,1.7-.84,2.12-4.38,2.06-8.82,4-13.18,6.13A131.67,131.67,0,0,0,491,345.15a5.26,5.26,0,0,1-6.21.34c-4.77-2.59-5-2.48-.62-5.92a161.19,161.19,0,0,1,24.37-15.79,14,14,0,0,1,1.83-.7A32.45,32.45,0,0,1,521.06,327.71Z" transform="translate(-229.82 -309.47)"/><path class="cls-12" d="M512.18,425.66c.72.43,1.57.79,1.47,2a10.68,10.68,0,0,1-.79,1.33c-3.59,4.67-7.24,9.31-11.21,13.68-1.32,1.46-2.32,1.46-3.76.09q-11-10.56-22.21-20.95c-1.82-1.68-1.91-2.9-.15-4.69a65.15,65.15,0,0,0,5.46-6.59c1.1-1.47,2.15-1.88,3.83-.89Q498.47,417.72,512.18,425.66Z" transform="translate(-229.82 -309.47)"/><path class="cls-12" d="M492.49,449.46a6.23,6.23,0,0,1,.73,1.3,2.74,2.74,0,0,1-1.12,1.82c-4.31,3.76-8.53,7.61-13.08,11.09-1.7,1.3-2.65,1.3-3.78-.65-5.1-8.83-10-17.78-14.81-26.76-1.29-2.37-1.49-4,1.07-5.69a54.47,54.47,0,0,0,6.58-5.48c1.19-1.08,2-1.08,3.09.12Q481.8,437.35,492.49,449.46Z" transform="translate(-229.82 -309.47)"/><path class="cls-11" d="M457,336.9c5.28-7.77,13.71-9.51,21.94-12.13,0,1.33-.76,1.66-1.34,2.1a66.76,66.76,0,0,0-14.22,14.75c-2.92,4.17-7.67,4.27-11.65,6.05-1.48.66-.8-1-.52-1.61C452.74,342.76,455,339.9,457,336.9Z" transform="translate(-229.82 -309.47)"/><path class="cls-11" d="M501.15,323.73a135.79,135.79,0,0,0-16.42,11.4c-1.48,1.21-3.21,2.21-4.36,3.68-2.78,3.52-6.43,4.43-10.6,4.27h-1.43c-.55,0-1.23.18-1.56-.39s.27-1,.61-1.45a84.45,84.45,0,0,1,9.51-9.87c2-1.79,4.2-3.31,6.1-5.17,5.26-5.16,11.88-4.3,18.31-4.33.47,0,1.05.08,1,.71S501.63,323.44,501.15,323.73Z" transform="translate(-229.82 -309.47)"/><path class="cls-11" d="M467.25,469.09c.7,1.45.62,2.43-.87,3.32-4.35,2.58-8.8,4.95-13.32,7.2-1.48.74-2.56.66-3-1.16-2.95-11.35-5.46-22.79-7.4-34.36a2.66,2.66,0,0,1,0-.28c-.16-1.29.67-1.89,1.65-2.39,2.11-1.1,4.25-2.15,6.33-3.32,2.82-1.57,3.21-1.51,4.32,1.47,2.72,7.33,5.7,14.55,8.83,21.71C464.87,463.9,466,466.53,467.25,469.09Z" transform="translate(-229.82 -309.47)"/><path class="cls-11" d="M457.63,536.09c.63,1.67.63,2.7-1.53,3.36a167.68,167.68,0,0,1-18.75,4.31c-2.23.24-2.92-.66-3.25-2a337.93,337.93,0,0,1-6.83-35.84,1.72,1.72,0,0,1,1.55-2.23c5-1.11,10.07-1.89,14.95-3.5,1.61-.53,2.42.09,2.89,1.73,2.46,8.68,4.8,17.4,7.88,25.9Q456,532,457.63,536.09Z" transform="translate(-229.82 -309.47)"/><path class="cls-11" d="M453.72,336c-1.55,2.27-3,4.32-4.34,6.38a7.81,7.81,0,0,0-1.44,2.45c-1.39,6.69-7.14,9.14-12,12.52-1.64,1.14-2.25.56-2.16-1.19.2-4.2,1.06-8.18,4.79-10.77,4.59-3.2,9.27-6.27,13.93-9.38C452.72,335.93,453.06,336,453.72,336Z" transform="translate(-229.82 -309.47)"/><path class="cls-11" d="M442.1,481.6c.32,1.65-.2,2.51-1.83,2.88-3.81.86-7.6,1.81-11.41,2.66-2,.44-3-.24-3.12-2.46-.21-3.71-.57-7.41-.46-9.84.06-9.38.69-17.45,1.15-25.53.1-1.66.74-2.62,2.5-2.89a48.39,48.39,0,0,0,5-1.15c3.35-.86,3.53-.89,3.79,2.64A293.39,293.39,0,0,0,442.1,481.6Z" transform="translate(-229.82 -309.47)"/><path class="cls-11" d="M428.49,362.11c.19,1-.45,1.56-1.08,2.18a87.11,87.11,0,0,0-7.3,7.58c-1.13,1.41-6.5.21-7.07-1.5a1.5,1.5,0,0,1,.55-1.52,146.88,146.88,0,0,1,14.67-14.46A34.76,34.76,0,0,0,428.49,362.11Z" transform="translate(-229.82 -309.47)"/><path class="cls-11" d="M415.59,446.23c6.57,1.1,6.69,1,5.72,7.66a289.79,289.79,0,0,0-2.8,31c-.11,2.82-.44,3.06-5.16,2.92-1.37-.25-4-.75-6.62-1.2-1.82-.31-2.51-1.16-2.22-3.15a237.94,237.94,0,0,1,7.91-35.38C413,446.32,413.85,445.94,415.59,446.23Z" transform="translate(-229.82 -309.47)"/><path class="cls-11" d="M412.47,378.42c1.41.36,1.2,1.22.6,2.15q-2.7,4.19-5.42,8.37a3.83,3.83,0,0,1-2,1.58,37.89,37.89,0,0,0-11.12,5.84,67,67,0,0,1,10.64-16.71C407,377.67,409.86,377.76,412.47,378.42Z" transform="translate(-229.82 -309.47)"/><path class="cls-11" d="M407.48,442.58c2.22,1.16,2.11,2.67,1.29,4.71a185.06,185.06,0,0,0-7.42,23.34c-.84,3.31-1.57,6.65-2.23,10-.49,2.46-1.68,2.72-3.56,1.39a41.43,41.43,0,0,1-6.19-5,3.69,3.69,0,0,1-1.17-3.4c1.07-3.18,2.22-7,3.62-10.73a203.36,203.36,0,0,1,9.64-21.6c.93-1.79,1.76-2.36,3.37-.83A12.84,12.84,0,0,0,407.48,442.58Z" transform="translate(-229.82 -309.47)"/><path class="cls-11" d="M396.14,429.17c.43-.55.74-1.53,1.69-1.24.73.22.52,1.15.83,1.7,2.43,4.31,1.45,8-1.11,12.09-4.88,7.74-8.53,16.15-11.84,24.69-.33.84-.36,2.26-1.38,2.29-1.21,0-1.31-1.46-1.71-2.36a39.23,39.23,0,0,1-2.92-9.79,17.79,17.79,0,0,1,.69-1.92A140.2,140.2,0,0,1,396.14,429.17Z" transform="translate(-229.82 -309.47)"/><path class="cls-11" d="M395.77,414.12c.59-.56,1.16-1.57,2.11-1.11s.12,1.37.2,2.07c.72,5.93-2.23,10.17-6,14.4a88.07,88.07,0,0,0-11.28,16.83,3,3,0,0,1-2,2c.16-7.53-.3-14.69,4.78-20.88A140,140,0,0,1,395.77,414.12Z" transform="translate(-229.82 -309.47)"/><path class="cls-11" d="M393.9,497.86a3.55,3.55,0,0,1,1.85,3.73,231.35,231.35,0,0,0-.4,33.92c.12,1.94-.69,2.24-2.18,1.36a44.89,44.89,0,0,1-11.58-9.63c-1.89-2.21-.49-5-1-7.16a182.35,182.35,0,0,1,3-27.5c.14-.72.12-1.63,1-1.91s1.15.55,1.57,1A38.74,38.74,0,0,0,393.9,497.86Z" transform="translate(-229.82 -309.47)"/><path class="cls-11" d="M403,398.32c-1.93,4.66-3.06,9.59-7.93,12.72-4,2.59-7.2,6.47-10.1,10.4-.54.72-.95,1.67-2.43,1.72.72-4.23,2.71-7.92,3.95-11.83,2.33-7.4,8.36-11,14.37-14.72.63-.39,1.44-.86,2.13-.38S403.31,397.68,403,398.32Z" transform="translate(-229.82 -309.47)"/></svg>